<?xml version="1.0" encoding="utf-8"?>
<!-- Generator: Adobe Illustrator 23.0.3, SVG Export Plug-In . SVG Version: 6.00 Build 0)  -->
<svg version="1.1" id="圖層_1" xmlns="http://www.w3.org/2000/svg" xmlns:xlink="http://www.w3.org/1999/xlink" x="0px" y="0px"
	 viewBox="0 0 100 100" style="enable-background:new 0 0 100 100;" xml:space="preserve">
<style type="text/css">
	.st0{fill:#E61D5E;}
	.st1{fill:#202F49;}
	.st2{fill:#070E0E;}
	.st3{fill:#CA2357;}
	.st4{fill:#49BBB5;}
	.st5{fill:#F5C01B;}
	.st6{fill:#A8D9D7;}
</style>
<g>
	<path class="st0" d="M129.1,60.2v-8h3c0.5,0,0.9,0,1.2,0.1c0.4,0.1,0.7,0.2,1,0.4c0.3,0.2,0.5,0.4,0.6,0.8c0.2,0.3,0.2,0.7,0.2,1.1
		c0,0.7-0.2,1.3-0.7,1.7s-1.2,0.7-2.4,0.7h-2.1v3.3H129.1z M130.2,56h2.1c0.7,0,1.2-0.1,1.5-0.4c0.3-0.3,0.4-0.6,0.4-1.1
		c0-0.3-0.1-0.6-0.3-0.9c-0.2-0.2-0.4-0.4-0.7-0.5c-0.2,0-0.5-0.1-1-0.1h-2.1V56z"/>
	<path class="st0" d="M136.1,57.3c0-1.1,0.3-1.9,0.9-2.4c0.5-0.4,1.1-0.6,1.8-0.6c0.8,0,1.5,0.3,2,0.8c0.5,0.5,0.8,1.2,0.8,2.2
		c0,0.7-0.1,1.3-0.3,1.8c-0.2,0.4-0.6,0.8-1,1c-0.4,0.2-0.9,0.4-1.4,0.4c-0.8,0-1.5-0.3-2-0.8C136.4,59,136.1,58.3,136.1,57.3z
		 M137.1,57.3c0,0.7,0.2,1.3,0.5,1.7c0.3,0.4,0.7,0.6,1.2,0.6c0.5,0,0.9-0.2,1.2-0.6c0.3-0.4,0.5-0.9,0.5-1.7c0-0.7-0.2-1.3-0.5-1.6
		c-0.3-0.4-0.7-0.6-1.2-0.6c-0.5,0-0.9,0.2-1.2,0.6S137.1,56.6,137.1,57.3z"/>
	<path class="st0" d="M142.7,60.2v-5.8h0.9v0.9c0.2-0.4,0.4-0.7,0.6-0.8c0.2-0.1,0.4-0.2,0.6-0.2c0.3,0,0.7,0.1,1,0.3l-0.3,0.9
		c-0.2-0.1-0.5-0.2-0.7-0.2c-0.2,0-0.4,0.1-0.6,0.2c-0.2,0.1-0.3,0.3-0.4,0.5c-0.1,0.4-0.2,0.7-0.2,1.1v3H142.7z"/>
	<path class="st0" d="M148.6,59.3l0.1,0.9c-0.3,0.1-0.5,0.1-0.7,0.1c-0.4,0-0.6-0.1-0.8-0.2c-0.2-0.1-0.3-0.3-0.4-0.4
		c-0.1-0.2-0.1-0.6-0.1-1.2v-3.3h-0.7v-0.8h0.7V53l1-0.6v2h1v0.8h-1v3.4c0,0.3,0,0.5,0.1,0.5c0,0.1,0.1,0.1,0.2,0.2
		c0.1,0,0.2,0.1,0.3,0.1C148.3,59.4,148.4,59.4,148.6,59.3z"/>
	<path class="st0" d="M149.8,60.2v-5h-0.9v-0.8h0.9v-0.6c0-0.4,0-0.7,0.1-0.9c0.1-0.3,0.3-0.5,0.5-0.6c0.2-0.2,0.6-0.2,1-0.2
		c0.3,0,0.6,0,0.9,0.1l-0.1,0.9c-0.2,0-0.4-0.1-0.6-0.1c-0.3,0-0.5,0.1-0.6,0.2c-0.1,0.1-0.2,0.4-0.2,0.7v0.5h1.1v0.8h-1.1v5H149.8z
		"/>
	<path class="st0" d="M152.3,57.3c0-1.1,0.3-1.9,0.9-2.4c0.5-0.4,1.1-0.6,1.8-0.6c0.8,0,1.5,0.3,2,0.8c0.5,0.5,0.8,1.2,0.8,2.2
		c0,0.7-0.1,1.3-0.3,1.8c-0.2,0.4-0.6,0.8-1,1c-0.4,0.2-0.9,0.4-1.4,0.4c-0.8,0-1.5-0.3-2-0.8C152.6,59,152.3,58.3,152.3,57.3z
		 M153.3,57.3c0,0.7,0.2,1.3,0.5,1.7c0.3,0.4,0.7,0.6,1.2,0.6c0.5,0,0.9-0.2,1.2-0.6c0.3-0.4,0.5-0.9,0.5-1.7c0-0.7-0.2-1.3-0.5-1.6
		c-0.3-0.4-0.7-0.6-1.2-0.6c-0.5,0-0.9,0.2-1.2,0.6C153.5,56,153.3,56.6,153.3,57.3z"/>
	<path class="st0" d="M158.9,60.2v-8h1v8H158.9z"/>
	<path class="st0" d="M161.4,53.3v-1.1h1v1.1H161.4z M161.4,60.2v-5.8h1v5.8H161.4z"/>
	<path class="st0" d="M163.5,57.3c0-1.1,0.3-1.9,0.9-2.4c0.5-0.4,1.1-0.6,1.8-0.6c0.8,0,1.5,0.3,2,0.8c0.5,0.5,0.8,1.2,0.8,2.2
		c0,0.7-0.1,1.3-0.3,1.8c-0.2,0.4-0.6,0.8-1,1c-0.4,0.2-0.9,0.4-1.4,0.4c-0.8,0-1.5-0.3-2-0.8C163.8,59,163.5,58.3,163.5,57.3z
		 M164.5,57.3c0,0.7,0.2,1.3,0.5,1.7c0.3,0.4,0.7,0.6,1.2,0.6c0.5,0,0.9-0.2,1.2-0.6c0.3-0.4,0.5-0.9,0.5-1.7c0-0.7-0.2-1.3-0.5-1.6
		c-0.3-0.4-0.7-0.6-1.2-0.6c-0.5,0-0.9,0.2-1.2,0.6S164.5,56.6,164.5,57.3z"/>
</g>
<text transform="matrix(1 0 0 1 230.4111 -32.7392)" style="font-family:'ArialMT'; font-size:78.2091px;">NC</text>
<text transform="matrix(1 0 0 1 53.9405 -51.0921)" style="font-family:'Arial-BoldMT'; font-size:78.2091px;">NC</text>
<g>
	<path class="st1" d="M1.6,76.2V23.8H12l21.5,35.1V23.8h9.8v52.5H32.7L11.5,42v34.2H1.6z"/>
	<path class="st1" d="M88.1,56.9l10.3,3.3c-1.6,5.7-4.2,10-7.9,12.8c-3.7,2.8-8.3,4.2-13.9,4.2c-7,0-12.7-2.4-17.2-7.1
		c-4.5-4.8-6.7-11.3-6.7-19.5c0-8.7,2.3-15.5,6.8-20.4c4.5-4.8,10.4-7.3,17.8-7.3c6.4,0,11.6,1.9,15.6,5.7c2.4,2.2,4.2,5.5,5.4,9.7
		l-10.5,2.5c-0.6-2.7-1.9-4.9-3.9-6.4c-2-1.6-4.4-2.4-7.2-2.4c-3.9,0-7,1.4-9.5,4.2c-2.4,2.8-3.6,7.3-3.6,13.6
		c0,6.6,1.2,11.4,3.6,14.2s5.5,4.2,9.3,4.2c2.8,0,5.2-0.9,7.3-2.7C85.7,63.6,87.2,60.8,88.1,56.9z"/>
</g>
<path class="st2" d="M149,43h5.5l32.2,50l-2.3-1.5V43h5.5v55.5h-5.6l-32.9-50.4l3,2.2v48.2H149V43z"/>
<path class="st2" d="M207.8,98.5c0,0-1.5-0.9-4.4-2.6c-2.9-1.7-5.2-4.1-6.8-7.3c-1.6-3.1-2.4-6.8-2.4-10.9V62.6
	c0-4.1,0.8-7.8,2.4-10.9c1.6-3.1,3.9-5.6,6.8-7.3s6.3-2.6,10.1-2.6c3.2,0,6.1,0.6,8.8,1.9c2.7,1.3,4.9,3.1,6.7,5.5
	c1.8,2.4,3,5.1,3.6,8.3h-5.5c-0.6-2.1-1.6-3.9-3-5.5c-1.4-1.6-3-2.9-4.9-3.7c-1.9-0.9-3.8-1.3-5.8-1.3c-2.8,0-5.2,0.6-7.3,1.9
	c-2.1,1.3-3.7,3.1-4.9,5.5c-1.1,2.4-1.7,5.1-1.7,8.2v15.2c0,3.1,0.6,5.8,1.7,8.2c1.1,2.4,2.8,4.2,4.9,5.5c2.1,1.3,4.5,1.9,7.3,1.9
	c2,0,3.9-0.4,5.8-1.3c1.9-0.8,3.5-2.1,4.9-3.7c1.4-1.6,2.4-3.5,3-5.7h5.5c-0.6,3.1-1.9,5.9-3.7,8.3c-1.8,2.4-4,4.2-6.7,5.5
	c-2.7,1.3-5.6,1.9-8.7,1.9C209.7,98.5,207.8,98.5,207.8,98.5z"/>
<rect x="149" y="43" class="st3" width="5.5" height="55.5"/>
<text transform="matrix(1 0 0 1 261.8242 -107.8954)" class="st3" style="font-family:'ArialMT'; font-size:13.2141px;">Portfolio</text>
<g>
	<g>
		<path class="st1" d="M-159.2,88.2V32.3h7.6l29.4,43.9V32.3h7.1v55.9h-7.6l-29.4-43.9v43.9H-159.2z"/>
		<path class="st1" d="M-68.3,68.6l7.4,1.9c-1.6,6.1-4.3,10.7-8.4,13.9c-4,3.2-9,4.8-14.8,4.8c-6,0-10.9-1.2-14.7-3.7
			c-3.8-2.5-6.6-6-8.6-10.7c-2-4.7-3-9.6-3-15c0-5.8,1.1-10.9,3.3-15.2c2.2-4.3,5.4-7.6,9.5-9.9c4.1-2.2,8.6-3.4,13.6-3.4
			c5.6,0,10.3,1.4,14.1,4.3c3.8,2.8,6.5,6.9,8,12l-7.3,1.7c-1.3-4.1-3.2-7-5.6-8.9c-2.5-1.9-5.6-2.8-9.3-2.8c-4.3,0-7.9,1-10.8,3.1
			c-2.9,2.1-4.9,4.8-6.1,8.3c-1.2,3.5-1.8,7-1.8,10.7c0,4.8,0.7,8.9,2.1,12.4c1.4,3.5,3.5,6.2,6.5,7.9c2.9,1.8,6.1,2.6,9.5,2.6
			c4.1,0,7.7-1.2,10.5-3.6C-71.3,76.8-69.3,73.3-68.3,68.6z"/>
	</g>
</g>
<rect x="-159.2" y="32.3" class="st4" width="7.1" height="55.9"/>
<circle class="st5" cx="-72.9" cy="60.8" r="5.3"/>
<circle class="st5" cx="-57.5" cy="54.3" r="5.7"/>
<circle class="st6" cx="154.5" cy="-3.8" r="5.3"/>
<rect x="149" y="43" class="st3" width="5.5" height="55.5"/>
<image style="overflow:visible;" width="1170" height="271" xlink:href="D22D2EE6.jpg"  transform="matrix(1 0 0 1 -106.1176 -417.9306)">
</image>
<rect x="1.6" y="23.8" class="st4" width="9.8" height="52.5"/>
</svg>
